<?xml version="1.0" encoding="UTF-8"?>
<svg id="Capa_2" data-name="Capa 2" xmlns="http://www.w3.org/2000/svg" viewBox="0 0 1093.02 1093.02">
  <defs>
    <style>
      .cls-1 {
        fill: #254f2c;
      }
    </style>
  </defs>
  <g id="Capa_1-2" data-name="Capa 1">
    <g>
      <rect class="cls-1" x="401.4" y="555.49" width="96" height="524" rx="19" ry="19" transform="translate(596.66 1738.67) rotate(-160.28)"/>
      <rect class="cls-1" x="278.92" y="470.63" width="96" height="524" rx="19" ry="19" transform="translate(-20.59 1455.72) rotate(-130.28)"/>
      <rect class="cls-1" x="215.28" y="335.9" width="96" height="524" rx="19" ry="19" transform="translate(-278.02 963.69) rotate(-100.28)"/>
      <rect class="cls-1" x="227.53" y="187.4" width="96" height="524" rx="19" ry="19" transform="translate(-240.48 557.17) rotate(-70.28)"/>
      <rect class="cls-1" x="312.39" y="64.92" width="96" height="524" rx="19" ry="19" transform="translate(-125.91 310.55) rotate(-40.28)"/>
      <rect class="cls-1" x="447.12" y="1.28" width="96" height="524" rx="19" ry="19" transform="translate(-39.05 92.62) rotate(-10.28)"/>
      <rect class="cls-1" x="595.62" y="13.53" width="96" height="524" rx="19" ry="19" transform="translate(130.68 -200.98) rotate(19.72)"/>
      <rect class="cls-1" x="718.1" y="98.39" width="96" height="524" rx="19" ry="19" transform="translate(545.68 -457.05) rotate(49.72)"/>
      <rect class="cls-1" x="781.74" y="233.12" width="96" height="524" rx="19" ry="19" transform="translate(1168.78 -409.69) rotate(79.72)"/>
      <rect class="cls-1" x="769.49" y="381.62" width="96" height="524" rx="19" ry="19" transform="translate(1699.17 91.18) rotate(109.72)"/>
      <rect class="cls-1" x="684.63" y="504.1" width="96" height="524" rx="19" ry="19" transform="translate(1786.86 876.82) rotate(139.72)"/>
      <rect class="cls-1" x="549.9" y="567.74" width="96" height="524" rx="19" ry="19" transform="translate(1334.33 1539.42) rotate(169.72)"/>
    </g>
  </g>
</svg>